<svg version="1.0" xmlns="http://www.w3.org/2000/svg" viewBox="0 0 512 512"
     preserveAspectRatio="xMidYMid meet">
    <g transform="translate(0.000000,512.000000) scale(0.100000,-0.100000)"
       fill="#000000" stroke="none">
        <path d="M1804 4928 c-139 -141 -216 -232 -285 -336 -43 -65 -55 -78 -63 -65
-10 18 7 106 34 168 19 44 86 150 141 225 l34 45 -40 -32 c-22 -17 -76 -69
-121 -115 -395 -408 -663 -923 -788 -1510 -47 -221 -60 -322 -60 -464 l-1
-121 37 -59 c20 -32 35 -61 33 -63 -2 -2 -22 4 -45 13 -22 9 -43 16 -45 16
-24 0 145 -234 317 -440 212 -253 688 -769 917 -995 l71 -69 44 -141 c42 -132
45 -148 48 -273 2 -72 0 -132 -3 -132 -3 0 -23 59 -43 132 -34 121 -45 144
-134 292 l-97 160 -3 -164 -3 -165 70 -140 c64 -128 254 -443 308 -512 l22
-28 0 476 1 476 -183 199 c-569 620 -964 1052 -977 1069 -14 19 -14 19 5 5
112 -84 560 -466 867 -739 l49 -44 55 54 54 54 -89 82 c-107 99 -250 261 -352
398 -202 270 -313 498 -354 725 -5 26 7 11 45 -60 269 -494 429 -696 810
-1023 96 -82 217 -191 268 -241 91 -89 92 -91 92 -138 l0 -48 140 0 140 0 0
45 c0 44 3 49 83 129 45 45 161 149 257 231 194 164 351 318 454 446 121 150
287 414 405 644 18 36 20 37 21 15 1 -95 -133 -403 -257 -590 -126 -190 -304
-400 -464 -546 -35 -32 -65 -61 -67 -66 -4 -9 87 -108 100 -108 5 0 58 45 116
99 161 149 767 661 812 686 8 4 -3 -12 -26 -36 -22 -24 -164 -179 -315 -344
-151 -165 -397 -434 -547 -597 l-272 -296 2 -479 3 -478 61 95 c113 175 204
331 262 443 l57 112 3 180 c2 140 0 176 -9 160 -7 -11 -50 -82 -96 -157 -75
-123 -88 -151 -123 -274 -22 -75 -42 -139 -45 -142 -3 -3 -5 53 -5 124 0 128
1 130 50 283 l51 154 227 231 c219 224 508 535 667 721 189 221 405 505 405
534 0 6 -16 5 -42 -5 -22 -8 -43 -12 -45 -10 -2 2 13 32 34 67 38 63 38 65 37
164 -2 166 -50 448 -115 682 -116 416 -308 789 -575 1118 -78 96 -294 319
-302 311 -2 -3 18 -36 46 -73 81 -109 133 -222 140 -298 2 -36 2 -65 -2 -65
-3 0 -23 26 -43 58 -81 128 -400 487 -418 470 -7 -7 -64 -330 -65 -365 0 -6
19 -22 43 -36 59 -35 126 -102 144 -144 20 -49 4 -62 -33 -28 -56 53 -193 136
-194 118 -1 -5 -5 -27 -9 -51 l-8 -43 61 -41 c173 -117 300 -308 353 -534 22
-98 25 -379 4 -494 -31 -169 -111 -347 -206 -458 -43 -49 -137 -124 -187 -148
-35 -16 -36 -16 -111 20 -267 126 -638 126 -907 0 l-77 -36 -54 27 c-33 17
-87 61 -139 114 -156 157 -232 354 -255 661 -12 160 31 392 96 522 67 133 189
272 295 334 l46 27 -6 46 c-3 25 -10 48 -14 52 -9 10 -114 -52 -175 -103 -27
-22 -51 -38 -54 -35 -11 12 11 71 40 103 16 20 59 56 94 81 44 31 62 50 59 62
-2 9 -17 91 -32 184 -15 92 -31 167 -34 167 -3 0 -55 -51 -116 -112z m274
-2434 c53 -269 179 -437 451 -603 l53 -32 60 36 c276 164 398 335 453 635 9
52 20 102 23 110 4 8 9 -75 12 -184 l5 -199 93 86 c51 47 132 128 179 179 47
51 90 95 95 97 14 5 -27 -72 -86 -164 -113 -174 -273 -340 -487 -507 -147
-114 -338 -241 -355 -234 -18 7 -148 93 -239 160 -206 149 -415 346 -527 498
-54 73 -148 225 -148 240 0 4 82 -74 183 -175 l182 -182 6 185 c4 102 7 192 9
200 3 20 14 -23 38 -146z"/>
    </g>
</svg>
